<svg width="190" height="214" viewBox="0 0 190 214" fill="none" xmlns="http://www.w3.org/2000/svg">
<rect y="50" width="190" height="164" rx="10" fill="#E6F0FF"/>
<path d="M30.3516 167.907C30.3516 169.557 29.9027 170.819 29.0049 171.694C28.1117 172.565 26.8242 173 25.1426 173H22.374V163.006H25.4365C26.9906 163.006 28.1982 163.437 29.0596 164.298C29.9209 165.159 30.3516 166.362 30.3516 167.907ZM29.1211 167.948C29.1211 166.645 28.793 165.663 28.1367 165.002C27.485 164.341 26.5143 164.011 25.2246 164.011H23.5361V171.995H24.9512C26.3366 171.995 27.3779 171.656 28.0752 170.977C28.7725 170.293 29.1211 169.284 29.1211 167.948ZM38.8828 169.247C38.8828 170.468 38.5752 171.423 37.96 172.111C37.3447 172.795 36.4948 173.137 35.4102 173.137C34.7402 173.137 34.1455 172.979 33.626 172.665C33.1064 172.351 32.7054 171.899 32.4229 171.312C32.1403 170.724 31.999 170.035 31.999 169.247C31.999 168.026 32.3044 167.076 32.915 166.396C33.5257 165.713 34.3734 165.371 35.458 165.371C36.5062 165.371 37.3379 165.72 37.9531 166.417C38.5729 167.114 38.8828 168.058 38.8828 169.247ZM33.1748 169.247C33.1748 170.204 33.3662 170.933 33.749 171.435C34.1318 171.936 34.6947 172.187 35.4375 172.187C36.1803 172.187 36.7432 171.938 37.126 171.441C37.5133 170.94 37.707 170.209 37.707 169.247C37.707 168.295 37.5133 167.572 37.126 167.08C36.7432 166.583 36.1758 166.335 35.4238 166.335C34.681 166.335 34.1204 166.579 33.7422 167.066C33.3639 167.554 33.1748 168.281 33.1748 169.247ZM43.3262 165.508H44.543L46.1836 169.78C46.5436 170.756 46.7669 171.46 46.8535 171.893H46.9082C46.9674 171.66 47.0905 171.264 47.2773 170.703C47.4688 170.138 48.0885 168.406 49.1367 165.508H50.3535L47.1338 174.039C46.8148 174.882 46.4411 175.479 46.0127 175.83C45.5889 176.186 45.0671 176.363 44.4473 176.363C44.1009 176.363 43.7591 176.325 43.4219 176.247V175.338C43.6725 175.393 43.9528 175.42 44.2627 175.42C45.042 175.42 45.598 174.982 45.9307 174.107L46.3477 173.041L43.3262 165.508ZM58.0371 169.247C58.0371 170.468 57.7295 171.423 57.1143 172.111C56.499 172.795 55.6491 173.137 54.5645 173.137C53.8945 173.137 53.2998 172.979 52.7803 172.665C52.2607 172.351 51.8597 171.899 51.5771 171.312C51.2946 170.724 51.1533 170.035 51.1533 169.247C51.1533 168.026 51.4587 167.076 52.0693 166.396C52.68 165.713 53.5277 165.371 54.6123 165.371C55.6605 165.371 56.4922 165.72 57.1074 166.417C57.7272 167.114 58.0371 168.058 58.0371 169.247ZM52.3291 169.247C52.3291 170.204 52.5205 170.933 52.9033 171.435C53.2861 171.936 53.849 172.187 54.5918 172.187C55.3346 172.187 55.8975 171.938 56.2803 171.441C56.6676 170.94 56.8613 170.209 56.8613 169.247C56.8613 168.295 56.6676 167.572 56.2803 167.08C55.8975 166.583 55.3301 166.335 54.5781 166.335C53.8353 166.335 53.2747 166.579 52.8965 167.066C52.5182 167.554 52.3291 168.281 52.3291 169.247ZM61.0996 165.508V170.368C61.0996 170.979 61.2386 171.435 61.5166 171.735C61.7946 172.036 62.2298 172.187 62.8223 172.187C63.6061 172.187 64.1781 171.972 64.5381 171.544C64.9027 171.116 65.085 170.416 65.085 169.445V165.508H66.2197V173H65.2832L65.1191 171.995H65.0576C64.8252 172.364 64.5016 172.647 64.0869 172.843C63.6768 173.039 63.2074 173.137 62.6787 173.137C61.7673 173.137 61.0837 172.92 60.6279 172.487C60.1768 172.054 59.9512 171.362 59.9512 170.409V165.508H61.0996ZM77.3965 173V168.153C77.3965 167.543 77.2575 167.087 76.9795 166.786C76.7015 166.485 76.2663 166.335 75.6738 166.335C74.89 166.335 74.3158 166.547 73.9512 166.971C73.5866 167.395 73.4043 168.094 73.4043 169.069V173H72.2695V165.508H73.1924L73.377 166.533H73.4316C73.6641 166.164 73.9899 165.879 74.4092 165.679C74.8285 165.474 75.2956 165.371 75.8105 165.371C76.7129 165.371 77.3919 165.59 77.8477 166.027C78.3034 166.46 78.5312 167.155 78.5312 168.112V173H77.3965ZM84.0342 173.137C82.9268 173.137 82.0518 172.799 81.4092 172.125C80.7712 171.451 80.4521 170.514 80.4521 169.315C80.4521 168.108 80.7484 167.148 81.3408 166.438C81.9378 165.727 82.7376 165.371 83.7402 165.371C84.679 165.371 85.4219 165.681 85.9688 166.301C86.5156 166.916 86.7891 167.729 86.7891 168.741V169.459H81.6279C81.6507 170.339 81.8717 171.006 82.291 171.462C82.7148 171.918 83.3096 172.146 84.0752 172.146C84.8818 172.146 85.6794 171.977 86.4678 171.64V172.651C86.0667 172.825 85.6862 172.948 85.3262 173.021C84.9707 173.098 84.54 173.137 84.0342 173.137ZM83.7266 166.321C83.125 166.321 82.6442 166.517 82.2842 166.909C81.9287 167.301 81.7191 167.843 81.6553 168.536H85.5723C85.5723 167.821 85.4128 167.274 85.0938 166.896C84.7747 166.513 84.319 166.321 83.7266 166.321ZM91.8955 173.137C90.7881 173.137 89.9131 172.799 89.2705 172.125C88.6325 171.451 88.3135 170.514 88.3135 169.315C88.3135 168.108 88.6097 167.148 89.2021 166.438C89.7992 165.727 90.599 165.371 91.6016 165.371C92.5404 165.371 93.2832 165.681 93.8301 166.301C94.377 166.916 94.6504 167.729 94.6504 168.741V169.459H89.4893C89.512 170.339 89.7331 171.006 90.1523 171.462C90.5762 171.918 91.1709 172.146 91.9365 172.146C92.7432 172.146 93.5407 171.977 94.3291 171.64V172.651C93.9281 172.825 93.5475 172.948 93.1875 173.021C92.832 173.098 92.4014 173.137 91.8955 173.137ZM91.5879 166.321C90.9863 166.321 90.5055 166.517 90.1455 166.909C89.79 167.301 89.5804 167.843 89.5166 168.536H93.4336C93.4336 167.821 93.2741 167.274 92.9551 166.896C92.6361 166.513 92.1803 166.321 91.5879 166.321ZM101.691 171.995H101.63C101.106 172.756 100.322 173.137 99.2783 173.137C98.2985 173.137 97.5352 172.802 96.9883 172.132C96.446 171.462 96.1748 170.509 96.1748 169.274C96.1748 168.039 96.4482 167.08 96.9951 166.396C97.542 165.713 98.3031 165.371 99.2783 165.371C100.295 165.371 101.074 165.74 101.616 166.479H101.705L101.657 165.938L101.63 165.412V162.363H102.765V173H101.842L101.691 171.995ZM99.4219 172.187C100.197 172.187 100.757 171.977 101.104 171.558C101.454 171.134 101.63 170.452 101.63 169.514V169.274C101.63 168.213 101.452 167.456 101.097 167.005C100.746 166.549 100.183 166.321 99.4082 166.321C98.7428 166.321 98.2324 166.581 97.877 167.101C97.526 167.616 97.3506 168.345 97.3506 169.288C97.3506 170.245 97.526 170.967 97.877 171.455C98.2279 171.943 98.7428 172.187 99.4219 172.187ZM115.281 169.247C115.281 170.468 114.974 171.423 114.358 172.111C113.743 172.795 112.893 173.137 111.809 173.137C111.139 173.137 110.544 172.979 110.024 172.665C109.505 172.351 109.104 171.899 108.821 171.312C108.539 170.724 108.397 170.035 108.397 169.247C108.397 168.026 108.703 167.076 109.313 166.396C109.924 165.713 110.772 165.371 111.856 165.371C112.905 165.371 113.736 165.72 114.352 166.417C114.971 167.114 115.281 168.058 115.281 169.247ZM109.573 169.247C109.573 170.204 109.765 170.933 110.147 171.435C110.53 171.936 111.093 172.187 111.836 172.187C112.579 172.187 113.142 171.938 113.524 171.441C113.912 170.94 114.105 170.209 114.105 169.247C114.105 168.295 113.912 167.572 113.524 167.08C113.142 166.583 112.574 166.335 111.822 166.335C111.079 166.335 110.519 166.579 110.141 167.066C109.762 167.554 109.573 168.281 109.573 169.247ZM118.344 165.508V170.368C118.344 170.979 118.483 171.435 118.761 171.735C119.039 172.036 119.474 172.187 120.066 172.187C120.85 172.187 121.422 171.972 121.782 171.544C122.147 171.116 122.329 170.416 122.329 169.445V165.508H123.464V173H122.527L122.363 171.995H122.302C122.069 172.364 121.746 172.647 121.331 172.843C120.921 173.039 120.451 173.137 119.923 173.137C119.011 173.137 118.328 172.92 117.872 172.487C117.421 172.054 117.195 171.362 117.195 170.409V165.508H118.344ZM129.295 165.371C129.628 165.371 129.926 165.398 130.19 165.453L130.033 166.506C129.723 166.438 129.45 166.403 129.213 166.403C128.607 166.403 128.087 166.649 127.654 167.142C127.226 167.634 127.012 168.247 127.012 168.98V173H125.877V165.508H126.813L126.943 166.896H126.998C127.276 166.408 127.611 166.032 128.003 165.768C128.395 165.503 128.826 165.371 129.295 165.371ZM140.355 173V168.153C140.355 167.543 140.216 167.087 139.938 166.786C139.66 166.485 139.225 166.335 138.633 166.335C137.844 166.335 137.268 166.549 136.903 166.978C136.543 167.406 136.363 168.108 136.363 169.083V173H135.229V162.363H136.363V165.583C136.363 165.97 136.345 166.292 136.309 166.547H136.377C136.6 166.187 136.917 165.904 137.327 165.699C137.742 165.49 138.214 165.385 138.742 165.385C139.658 165.385 140.344 165.604 140.8 166.041C141.26 166.474 141.49 167.164 141.49 168.112V173H140.355ZM146.993 173.137C145.886 173.137 145.011 172.799 144.368 172.125C143.73 171.451 143.411 170.514 143.411 169.315C143.411 168.108 143.707 167.148 144.3 166.438C144.897 165.727 145.697 165.371 146.699 165.371C147.638 165.371 148.381 165.681 148.928 166.301C149.475 166.916 149.748 167.729 149.748 168.741V169.459H144.587C144.61 170.339 144.831 171.006 145.25 171.462C145.674 171.918 146.269 172.146 147.034 172.146C147.841 172.146 148.638 171.977 149.427 171.64V172.651C149.026 172.825 148.645 172.948 148.285 173.021C147.93 173.098 147.499 173.137 146.993 173.137ZM146.686 166.321C146.084 166.321 145.603 166.517 145.243 166.909C144.888 167.301 144.678 167.843 144.614 168.536H148.531C148.531 167.821 148.372 167.274 148.053 166.896C147.734 166.513 147.278 166.321 146.686 166.321ZM152.824 173H151.689V162.363H152.824V173ZM158.717 173.137C158.229 173.137 157.783 173.048 157.377 172.87C156.976 172.688 156.639 172.41 156.365 172.036H156.283C156.338 172.474 156.365 172.888 156.365 173.28V176.363H155.23V165.508H156.153L156.311 166.533H156.365C156.657 166.123 156.996 165.827 157.384 165.645C157.771 165.462 158.215 165.371 158.717 165.371C159.71 165.371 160.476 165.711 161.014 166.39C161.556 167.069 161.827 168.021 161.827 169.247C161.827 170.478 161.551 171.435 161 172.118C160.453 172.797 159.692 173.137 158.717 173.137ZM158.553 166.335C157.787 166.335 157.233 166.547 156.892 166.971C156.55 167.395 156.374 168.069 156.365 168.994V169.247C156.365 170.3 156.541 171.054 156.892 171.51C157.243 171.961 157.805 172.187 158.58 172.187C159.227 172.187 159.733 171.924 160.098 171.4C160.467 170.876 160.651 170.154 160.651 169.233C160.651 168.299 160.467 167.584 160.098 167.087C159.733 166.586 159.218 166.335 158.553 166.335ZM164.589 170.245V169.876C164.589 169.343 164.671 168.905 164.835 168.563C164.999 168.217 165.304 167.853 165.751 167.47C166.371 166.946 166.76 166.551 166.92 166.287C167.084 166.023 167.166 165.704 167.166 165.33C167.166 164.865 167.016 164.507 166.715 164.257C166.419 164.002 165.99 163.874 165.43 163.874C165.07 163.874 164.719 163.917 164.377 164.004C164.035 164.086 163.643 164.239 163.201 164.462L162.798 163.539C163.659 163.088 164.559 162.862 165.498 162.862C166.368 162.862 167.045 163.076 167.528 163.505C168.011 163.933 168.253 164.537 168.253 165.316C168.253 165.649 168.207 165.943 168.116 166.198C168.03 166.449 167.9 166.688 167.727 166.916C167.553 167.139 167.18 167.502 166.605 168.003C166.145 168.395 165.84 168.721 165.689 168.98C165.544 169.24 165.471 169.587 165.471 170.02V170.245H164.589ZM164.254 172.275C164.254 171.656 164.527 171.346 165.074 171.346C165.339 171.346 165.541 171.425 165.683 171.585C165.828 171.744 165.901 171.975 165.901 172.275C165.901 172.567 165.828 172.795 165.683 172.959C165.537 173.118 165.334 173.198 165.074 173.198C164.837 173.198 164.641 173.128 164.486 172.986C164.331 172.84 164.254 172.604 164.254 172.275Z" fill="#7788AE"/>
<path d="M181 112.484H9V112.57H181V112.484Z" fill="#BCC7FF"/>
<path d="M148.396 115.096H139.256V115.181H148.396V115.096Z" fill="#BCC7FF"/>
<path d="M162.28 116.813H154.402V116.899H162.28V116.813Z" fill="#BCC7FF"/>
<path d="M93.8166 116.559H88.2782V116.645H93.8166V116.559Z" fill="#BCC7FF"/>
<path d="M86.2968 116.559H65.6259V116.645H86.2968V116.559Z" fill="#BCC7FF"/>
<path d="M57.0465 116.016H43.8954V116.102H57.0465V116.016Z" fill="#BCC7FF"/>
<path d="M133.476 114.601H103.676V114.687H133.476V114.601Z" fill="#BCC7FF"/>
<path d="M39.9979 115.975H31.3359V116.061H39.9979V115.975Z" fill="#BCC7FF"/>
<path d="M90.528 97.1613H24.105C23.5847 97.1604 23.0859 96.9533 22.7183 96.5855C22.3507 96.2177 22.1442 95.7192 22.1442 95.1995V1.9446C22.1488 1.42788 22.3572 0.933813 22.7244 0.569712C23.0915 0.205612 23.5876 0.000885167 24.105 0H90.528C91.0489 0 91.5486 0.206687 91.9169 0.574592C92.2853 0.942496 92.4922 1.44148 92.4922 1.96178V95.1995C92.4922 95.7198 92.2853 96.2188 91.9169 96.5867C91.5486 96.9546 91.0489 97.1613 90.528 97.1613V97.1613ZM24.105 0.068714C23.6075 0.0696241 23.1306 0.267662 22.7791 0.619361C22.4276 0.971059 22.2302 1.44768 22.2302 1.9446V95.1995C22.2302 95.6964 22.4276 96.173 22.7791 96.5247C23.1306 96.8764 23.6075 97.0745 24.105 97.0754H90.528C91.0259 97.0745 91.5031 96.8765 91.8551 96.5249C92.2071 96.1733 92.4053 95.6967 92.4062 95.1995V1.9446C92.4053 1.44736 92.2071 0.970751 91.8551 0.619151C91.5031 0.267551 91.0259 0.0696222 90.528 0.068714H24.105Z" fill="#BCC7FF"/>
<path d="M164.939 97.1613H98.5122C97.9916 97.1604 97.4925 96.9534 97.1243 96.5857C96.7562 96.218 96.5489 95.7195 96.548 95.1995V1.9446C96.5534 1.42757 96.7627 0.933503 97.1304 0.569497C97.498 0.205491 97.9945 0.000875513 98.5122 0H164.939C165.455 0.0017881 165.951 0.206914 166.317 0.570918C166.683 0.934922 166.891 1.42847 166.896 1.9446V95.1995C166.896 95.7186 166.69 96.2165 166.323 96.5842C165.956 96.952 165.458 97.1594 164.939 97.1613V97.1613ZM98.5122 0.068714C98.0144 0.0696222 97.5372 0.267551 97.1851 0.619151C96.8331 0.970751 96.6349 1.44736 96.634 1.9446V95.1995C96.6349 95.6967 96.8331 96.1733 97.1851 96.5249C97.5372 96.8765 98.0144 97.0745 98.5122 97.0754H164.939C165.437 97.0745 165.914 96.8765 166.266 96.5249C166.618 96.1733 166.816 95.6967 166.817 95.1995V1.9446C166.816 1.44736 166.618 0.970751 166.266 0.619151C165.914 0.267551 165.437 0.0696222 164.939 0.068714H98.5122Z" fill="#BCC7FF"/>
<path d="M116.982 112.481H123.621V69.2566H116.982V112.481Z" fill="white"/>
<path d="M119.86 99.829L120.89 99.3352L112.064 80.9786L111.034 81.4723L119.86 99.829Z" fill="white"/>
<path d="M117.676 83.5628C117.676 83.5628 118.894 89.5478 125.379 87.7853C128.213 87.0122 128.819 84.8855 128.688 82.8516C131.309 84.7172 135.251 86.2358 134.88 78.0588C134.88 78.0588 143.325 84.487 146.156 75.245C148.987 66.003 141.406 65.1338 141.406 65.1338C141.406 65.1338 152.07 56.335 148.43 49.1235C144.498 41.3554 137.656 45.3717 137.656 45.3717C137.656 45.3717 139.07 35.0646 131.443 35.5147C130.481 35.5742 129.575 35.9837 128.894 36.6656C126.283 35.2914 122.988 39.5104 122.988 39.5104C122.988 39.5104 122.331 34.3294 117.14 36.1984C114.873 37.0161 114.281 38.9126 114.288 40.6888C112.324 39.184 109.3 38.0537 109.19 45.1999C109.19 45.1999 102.874 39.988 100.184 48.2302C97.494 56.4724 103.411 56.8537 103.411 56.8537C103.411 56.8537 94.5838 65.0994 97.0846 71.239C99.7747 77.8527 105.341 73.9875 105.341 73.9875C105.341 73.9875 103.982 81.6113 108.368 82.3053C108.221 83.0701 108.311 83.8615 108.626 84.5737C108.942 85.2859 109.467 85.8849 110.133 86.2907C113.634 88.3384 117.676 83.5628 117.676 83.5628Z" fill="white"/>
<path d="M157.247 70.4007V112.484H34.1808V70.2495L87.1809 63.0826L157.247 70.4007Z" fill="#FAFAFA"/>
<path d="M87.1809 63.0826L34.1808 70.2495V112.484H87.1809V63.0826Z" fill="white"/>
<path d="M92.7468 112.484H118.024V80.1099H92.7468V112.484Z" fill="#BCC7FF"/>
<path d="M116.834 112.484V81.2025H93.9439V112.484H116.834Z" fill="white"/>
<path d="M105.485 112.484V81.2025H105.293V112.484H105.485Z" fill="#BCC7FF"/>
<path d="M162.015 71.9331L87.1946 64.1203L29.4439 71.9296L29.1653 69.8888L87.1637 62.0452L87.2875 62.0589L162.231 69.8854L162.015 71.9331Z" fill="#BCC7FF"/>
<path d="M156.679 22.8508C158.674 18.5459 157.092 15.4778 152.207 15.4778C149.149 15.4778 145.355 16.6871 141.664 18.6489C141.244 17.5289 140.071 16.8589 138.179 16.8589C134.852 16.8589 130.267 18.9203 126.669 21.8579C125.798 21.2051 124.539 20.8065 122.919 20.7413C119.734 20.6107 115.877 21.8029 112.527 23.7406C112.128 23.3673 111.597 23.1671 111.051 23.184C109.214 23.1084 106.73 24.3109 105.495 25.8673L105.282 26.1525H159.153C160.859 24.627 158.984 22.9264 156.679 22.8508Z" fill="#FAFAFA"/>
<path d="M80.8134 11.3377C80.6774 11.3239 80.5408 11.317 80.404 11.3171C80.5313 9.90847 79.802 9.00832 78.2403 9.00832C77.1154 9.00832 75.7325 9.47901 74.3256 10.2727C74.728 7.52411 73.438 5.7616 70.5175 5.7616C68.1576 5.7616 65.1752 6.91943 62.2271 8.80218C61.9691 7.73025 61.1022 7.08434 59.6436 7.08434C57.0808 7.08434 53.4516 9.07017 50.5173 11.8737C49.8844 11.2484 48.9384 10.843 47.6931 10.7983C45.2507 10.6746 42.22 11.829 39.5334 13.674C39.4062 13.5016 39.2389 13.3627 39.0459 13.2693C38.8529 13.1759 38.64 13.1309 38.4257 13.138C37.091 13.0693 35.2506 14.0966 34.1842 15.4674H82.96C84.1055 13.3991 83.1939 11.5782 80.8134 11.3377Z" fill="#FAFAFA"/>
<path d="M31.36 112.484H26.1277C26.1277 112.484 22.9045 109.623 21.8553 105.785C21.3737 104.019 23.7507 102.796 25.1886 104.067C28.5598 107.018 31.36 112.484 31.36 112.484Z" fill="#FAFAFA"/>
<path d="M33.5685 112.484H28.3328C28.3328 112.484 25.3366 106.341 26.4958 101.868C26.5838 101.515 26.7667 101.192 27.0248 100.935C27.2829 100.678 27.6065 100.496 27.9605 100.409C28.3145 100.322 28.6856 100.333 29.0337 100.441C29.3818 100.55 29.6938 100.751 29.9358 101.023C33.885 105.376 33.5685 112.484 33.5685 112.484Z" fill="#FAFAFA"/>
<path d="M33.5753 112.484H36.9568C36.9568 112.484 39.0759 108.75 41.0848 104.163C42.9424 99.8824 39.7776 98.0958 37.7893 102.301C35.2437 107.65 33.5753 112.484 33.5753 112.484Z" fill="#FAFAFA"/>
<path d="M34.5007 112.484H39.7364C39.7364 112.484 45.0099 109.994 44.7141 105.27C44.6384 104.036 43.2246 103.232 41.9621 103.713C36.3549 105.871 34.5007 112.484 34.5007 112.484Z" fill="#FAFAFA"/>
<path d="M31.5595 112.484H36.7986C36.7986 112.484 38.381 103.758 36.52 98.2607C35.9593 96.6184 33.9675 96.3298 33.049 97.7591C29.6193 103.071 31.5595 112.484 31.5595 112.484Z" fill="#FAFAFA"/>
<path d="M74.4529 74.8018H46.9088V103.012H74.4529V74.8018Z" fill="#BCC7FF"/>
<path d="M73.1594 101.562V76.2551H48.2022V101.562H73.1594Z" fill="#FAFAFA"/>
<path d="M73.9163 87.933H47.442V89.881H73.9163V87.933Z" fill="#BCC7FF"/>
<path d="M61.6561 102.504V75.3171H59.7056V102.504H61.6561Z" fill="#BCC7FF"/>
<path d="M157.247 103.012H126.012V75.3137H157.247" fill="#BCC7FF"/>
<path d="M157.247 101.59V76.7429H127.281V101.59H157.247Z" fill="#FAFAFA"/>
<path d="M109.11 73.6275C109.598 71.5745 108.327 69.5153 106.271 69.0281C104.216 68.5409 102.154 69.8102 101.666 71.8632C101.179 73.9162 102.449 75.9754 104.505 76.4626C106.561 76.9498 108.622 75.6805 109.11 73.6275Z" fill="white"/>
<path d="M123.033 111.509H68.395V112.487H123.033V111.509Z" fill="#BCC7FF"/>
<path d="M95 128C131.836 128 161.698 126.259 161.698 124.111C161.698 121.963 131.836 120.222 95 120.222C58.1637 120.222 28.3019 121.963 28.3019 124.111C28.3019 126.259 58.1637 128 95 128Z" fill="white"/>
<path d="M63.5584 40.5411C63.4999 41.5203 63.3864 42.4204 63.2591 43.3515C63.1318 44.2825 62.9564 45.193 62.7603 46.1C62.3773 47.9591 61.8222 49.7787 61.1022 51.5353L60.8064 52.1949L60.7307 52.3598L60.6929 52.4423C60.6929 52.4698 60.6722 52.4904 60.6447 52.5488C60.5395 52.7575 60.4089 52.9525 60.256 53.1294C59.8936 53.545 59.3899 53.8119 58.8422 53.8784C58.4341 53.9227 58.0212 53.8794 57.6313 53.7513C57.0844 53.5657 56.5684 53.2993 56.1005 52.9611C55.6951 52.6711 55.3069 52.3579 54.9378 52.0232C53.5653 50.7441 52.3315 49.3242 51.257 47.7869L52.399 46.8215C53.0354 47.4193 53.7028 48.024 54.3667 48.6012C55.0306 49.1784 55.7152 49.7281 56.3998 50.2194C56.7315 50.4579 57.076 50.6781 57.4318 50.8791C57.7139 51.048 58.0185 51.1764 58.3365 51.2604C58.4431 51.281 58.5119 51.2604 58.4638 51.2604C58.3693 51.2701 58.2808 51.3113 58.2126 51.3772C58.1886 51.3979 58.1851 51.4013 58.1886 51.3772L58.2918 51.1058L58.5154 50.5149C59.0773 48.8847 59.5166 47.2149 59.8294 45.5194C60.0014 44.6673 60.1218 43.8016 60.2526 42.9358C60.3833 42.07 60.4727 41.1836 60.5484 40.3624L63.5584 40.5411Z" fill="#EEC1BB"/>
<path d="M61.5047 36.9542C60.2869 37.2634 59.4407 42.2624 59.4407 42.2624L62.7912 44.5402C62.7912 44.5402 66.0008 39.5104 65.072 38.1602C64.1432 36.8099 63.2763 36.5041 61.5047 36.9542Z" fill="#407BFF"/>
<path opacity="0.3" d="M61.5047 36.9542C60.2869 37.2634 59.4407 42.2624 59.4407 42.2624L62.7912 44.5402C62.7912 44.5402 66.0008 39.5104 65.072 38.1602C64.1432 36.8099 63.2763 36.5041 61.5047 36.9542Z" fill="black"/>
<path d="M61.6113 38.0708L60.6791 43.111L62.5608 44.3856L61.6113 38.0708Z" fill="#407BFF"/>
<path opacity="0.5" d="M61.6113 38.0708L60.6791 43.111L62.5608 44.3856L61.6113 38.0708Z" fill="black"/>
<path d="M52.4334 46.6258L50.8373 44.1108L49.936 46.9693C49.936 46.9693 51.2432 48.3436 52.4265 48L52.4334 46.6258Z" fill="#EEC1BB"/>
<path d="M48.5015 43.2794L47.8719 45.7119L49.9325 46.9694L50.8372 44.1109L48.5015 43.2794Z" fill="#EEC1BB"/>
<path d="M68.0854 121.101H65.1339L64.9344 114.274H67.8859L68.0854 121.101Z" fill="#EEC1BB"/>
<path d="M94.1262 107.41L91.8764 109.317L86.7302 104.727L88.98 102.82L94.1262 107.41Z" fill="#EEC1BB"/>
<path d="M91.2607 109.09L93.4417 106.596C93.478 106.552 93.5295 106.523 93.5861 106.514C93.6427 106.506 93.7003 106.519 93.7478 106.551L95.9735 107.991C96.0263 108.029 96.0706 108.077 96.1036 108.133C96.1367 108.189 96.1577 108.251 96.1655 108.316C96.1733 108.381 96.1675 108.446 96.1487 108.508C96.1299 108.571 96.0983 108.628 96.0561 108.678C95.2821 109.533 94.8658 109.908 93.9061 111.004C93.3144 111.691 92.5301 112.721 91.7079 113.656C90.8857 114.59 89.926 113.835 90.184 113.374C91.3295 111.313 91.0543 110.581 91.0715 109.564C91.0793 109.389 91.1459 109.222 91.2607 109.09V109.09Z" fill="#263238"/>
<path d="M65.0307 120.758H68.3468C68.4043 120.757 68.46 120.777 68.5036 120.814C68.5472 120.852 68.5759 120.904 68.5842 120.96L68.9592 123.582C68.967 123.648 68.9606 123.715 68.9404 123.778C68.9202 123.842 68.8867 123.9 68.8421 123.95C68.7975 123.999 68.7428 124.038 68.6817 124.065C68.6206 124.092 68.5545 124.105 68.4879 124.104C67.332 124.083 66.7679 124.018 65.3162 124.018C64.4184 124.018 62.5642 124.111 61.3258 124.111C60.0874 124.111 60.0186 122.888 60.5346 122.774C62.8497 122.28 63.7579 121.592 64.5388 120.94C64.6767 120.824 64.8505 120.76 65.0307 120.758V120.758Z" fill="#263238"/>
<path d="M64.9344 114.278L65.0376 117.796H67.9891L67.8893 114.278H64.9344Z" fill="#DB9792"/>
<path d="M88.98 102.82L86.7302 104.73L89.3859 107.094L91.6356 105.184L88.98 102.82Z" fill="#DB9792"/>
<path d="M63.6203 23.6478C65.612 20.6897 70.3867 19.7071 73.3589 22.3595C77.1429 25.7367 74.8484 32.3573 80.6655 30.6051C86.4825 28.8529 91.9315 29.2721 91.9624 32.2783C91.9934 35.2845 95.5469 31.4675 99.73 34.5527C108.199 40.7954 101.722 56.8503 94.2741 50.7176C89.3893 46.6979 87.6796 44.9732 85.2441 48.0378C82.8086 51.1024 74.1363 49.656 73.3589 45.7909C72.5815 41.9257 67.05 43.805 64.04 40.4277C61.03 37.0505 59.3719 29.9523 63.6203 23.6478Z" fill="#263238"/>
<path d="M61.5046 36.9543C61.5046 36.9543 60.0977 37.449 62.915 54.7443H74.9C74.697 49.8725 74.6936 46.8697 77.0259 36.8787C75.3471 36.5346 73.6456 36.3118 71.9347 36.2122C70.123 36.0815 68.3043 36.0815 66.4926 36.2122C64.1534 36.4183 61.5046 36.9543 61.5046 36.9543Z" fill="#407BFF"/>
<path opacity="0.3" d="M61.5046 36.9543C61.5046 36.9543 60.0977 37.449 62.915 54.7443H74.9C74.697 49.8725 74.6936 46.8697 77.0259 36.8787C75.3471 36.5346 73.6456 36.3118 71.9347 36.2122C70.123 36.0815 68.3043 36.0815 66.4926 36.2122C64.1534 36.4183 61.5046 36.9543 61.5046 36.9543Z" fill="black"/>
<path d="M71.3947 30.0795C71.0507 31.8282 70.7067 35.0337 71.9347 36.2019C71.9347 36.2019 71.4566 37.9747 68.2023 37.9747C64.6247 37.9747 66.4823 36.2019 66.4823 36.2019C68.4328 35.7346 68.3847 34.2882 68.0441 32.9277L71.3947 30.0795Z" fill="#EEC1BB"/>
<path d="M70.0324 31.2407L68.0544 32.9276C68.1405 33.2435 68.197 33.5667 68.223 33.8931C68.9695 33.7831 69.9946 32.9654 70.0737 32.1752C70.1162 31.8638 70.1023 31.5472 70.0324 31.2407V31.2407Z" fill="#DB9792"/>
<path d="M73.242 26.8705C72.554 29.7152 72.3269 30.9349 70.6104 32.1511C68.0304 33.9858 64.6832 32.5188 64.5044 29.5297C64.3427 26.8361 65.4951 22.6377 68.5154 21.9918C69.1807 21.846 69.8724 21.8727 70.5245 22.0691C71.1767 22.2656 71.7677 22.6254 72.2413 23.1143C72.715 23.6032 73.0556 24.205 73.2307 24.8624C73.4059 25.5199 73.4097 26.2111 73.242 26.8705Z" fill="#EEC1BB"/>
<path d="M62.9151 54.7443C62.9151 54.7443 60.5862 77.4507 60.7788 86.4385C60.9818 95.7904 64.4115 117.112 64.4115 117.112H68.4019C68.4019 117.112 67.7689 96.3367 68.1232 87.1531C68.5085 77.145 71.6905 54.7443 71.6905 54.7443H62.9151Z" fill="#407BFF"/>
<path opacity="0.5" d="M62.9151 54.7443C62.9151 54.7443 60.5862 77.4507 60.7788 86.4385C60.9818 95.7904 64.4115 117.112 64.4115 117.112H68.4019C68.4019 117.112 67.7689 96.3367 68.1232 87.1531C68.5085 77.145 71.6905 54.7443 71.6905 54.7443H62.9151Z" fill="black"/>
<path d="M68.7459 117.257H64.064L63.72 115.766L68.966 115.583L68.7459 117.257Z" fill="#407BFF"/>
<path opacity="0.3" d="M68.7459 117.257H64.064L63.72 115.766L68.966 115.583L68.7459 117.257Z" fill="white"/>
<path d="M68.0819 60.396C65.1407 66.3088 67.4937 77.1003 68.5326 81.1132C69.0692 75.087 69.9671 67.714 70.6688 62.3028C70.232 59.2416 69.4407 57.6681 68.0819 60.396Z" fill="#407BFF"/>
<path opacity="0.6" d="M68.0819 60.396C65.1407 66.3088 67.4937 77.1003 68.5326 81.1132C69.0692 75.087 69.9671 67.714 70.6688 62.3028C70.232 59.2416 69.4407 57.6681 68.0819 60.396Z" fill="black"/>
<path d="M66.0799 54.7443C66.0799 54.7443 68.7941 78.3509 70.8443 85.93C73.2798 94.9281 88.3883 107.035 88.3883 107.035L91.4533 104.435C91.4533 104.435 80.4935 91.2794 78.6325 86.5416C74.6593 76.4235 78.0614 61.3477 74.8863 54.7443H66.0799Z" fill="#407BFF"/>
<path opacity="0.5" d="M66.0799 54.7443C66.0799 54.7443 68.7941 78.3509 70.8443 85.93C73.2798 94.9281 88.3883 107.035 88.3883 107.035L91.4533 104.435C91.4533 104.435 80.4935 91.2794 78.6325 86.5416C74.6593 76.4235 78.0614 61.3477 74.8863 54.7443H66.0799Z" fill="black"/>
<path d="M91.959 104.294L88.1509 107.523L86.7302 106.671L91.0336 102.672L91.959 104.294Z" fill="#407BFF"/>
<path opacity="0.3" d="M91.959 104.294L88.1509 107.523L86.7302 106.671L91.0336 102.672L91.959 104.294Z" fill="white"/>
<path d="M68.7288 26.8964C68.7702 26.6631 68.6793 26.4519 68.5259 26.4248C68.3725 26.3977 68.2147 26.5649 68.1733 26.7982C68.1319 27.0315 68.2227 27.2427 68.3761 27.2698C68.5295 27.2969 68.6874 27.1298 68.7288 26.8964Z" fill="#263238"/>
<path d="M66.0833 26.4338C66.042 26.6672 65.8838 26.8354 65.7393 26.8079C65.5948 26.7805 65.4951 26.5676 65.5364 26.3342C65.5776 26.1008 65.7359 25.9326 65.8804 25.9601C66.0248 25.9876 66.1246 26.2004 66.0833 26.4338Z" fill="#263238"/>
<path d="M65.9457 25.9839L65.4125 25.723C65.4125 25.723 65.6224 26.2139 65.9457 25.9839Z" fill="#263238"/>
<path d="M66.7129 26.9598C66.409 27.4567 66.0387 27.9098 65.6121 28.3066C65.717 28.4123 65.8435 28.4941 65.9831 28.5463C66.1226 28.5985 66.2718 28.6199 66.4205 28.609L66.7129 26.9598Z" fill="#D4827D"/>
<path d="M67.48 29.7147C67.346 29.715 67.2124 29.7024 67.0809 29.6769C67.0632 29.6736 67.0475 29.6634 67.0372 29.6487C67.0269 29.6339 67.0229 29.6157 67.0259 29.598C67.0292 29.5801 67.0393 29.5641 67.0539 29.5533C67.0686 29.5425 67.0869 29.5376 67.105 29.5396C67.3958 29.5971 67.696 29.5858 67.9816 29.5065C68.2671 29.4272 68.5301 29.2822 68.7493 29.0831C68.7622 29.0705 68.7795 29.0635 68.7975 29.0635C68.8155 29.0635 68.8328 29.0705 68.8456 29.0831C68.8524 29.0895 68.8578 29.0972 68.8615 29.1058C68.8652 29.1143 68.8671 29.1236 68.8671 29.1329C68.8671 29.1422 68.8652 29.1514 68.8615 29.16C68.8578 29.1685 68.8524 29.1762 68.8456 29.1826C68.4775 29.5311 67.9873 29.722 67.48 29.7147V29.7147Z" fill="#263238"/>
<path d="M68.6323 21.7514C67.3148 22.5072 70.5656 29.6535 72.9427 28.6502C75.3197 27.647 74.5491 23.6582 73.3727 22.655C72.1962 21.6517 70.459 20.7069 68.6323 21.7514Z" fill="#263238"/>
<path d="M67.8927 21.4146C67.8927 21.4146 66.3069 21.6448 65.2474 23.6203C64.1878 25.5958 70.2767 21.6894 69.4167 21.4146C68.9221 21.2498 68.3873 21.2498 67.8927 21.4146V21.4146Z" fill="#263238"/>
<path d="M73.3624 29.0144C73.2549 29.2732 73.0971 29.5082 72.8981 29.7058C72.6991 29.9034 72.4629 30.0596 72.2031 30.1654C71.5151 30.4471 71.0782 29.8458 71.202 29.1346C71.3156 28.5059 71.8109 27.6023 72.5436 27.6195C72.7049 27.6255 72.8621 27.6719 73.0006 27.7546C73.1391 27.8373 73.2545 27.9536 73.3361 28.0926C73.4177 28.2317 73.4629 28.389 73.4675 28.5502C73.4721 28.7113 73.4359 28.8709 73.3624 29.0144V29.0144Z" fill="#EEC1BB"/>
<path d="M69.458 25.3616C69.4206 25.3612 69.3849 25.3464 69.3582 25.3204C69.2416 25.189 69.0952 25.0874 68.9312 25.0241C68.7672 24.9608 68.5904 24.9377 68.4156 24.9565C68.3792 24.9625 68.3418 24.954 68.3116 24.9329C68.2814 24.9117 68.2607 24.8795 68.254 24.8433C68.2505 24.8254 68.2506 24.8071 68.2542 24.7893C68.2579 24.7716 68.265 24.7547 68.2753 24.7397C68.2855 24.7247 68.2986 24.7118 68.3139 24.7019C68.3291 24.692 68.3461 24.6852 68.364 24.6819C68.5849 24.6541 68.8091 24.6802 69.0177 24.758C69.2262 24.8357 69.4127 24.9627 69.5612 25.1282C69.5866 25.1544 69.6008 25.1895 69.6008 25.226C69.6008 25.2625 69.5866 25.2976 69.5612 25.3238C69.5477 25.3372 69.5315 25.3475 69.5137 25.354C69.4959 25.3606 69.4769 25.3631 69.458 25.3616V25.3616Z" fill="#263238"/>
<path d="M65.1201 25.0042C65.1021 25.0042 65.0843 25.0005 65.0677 24.9934C65.0512 24.9863 65.0362 24.976 65.0238 24.9631C64.9983 24.9368 64.9841 24.9017 64.9841 24.8652C64.9841 24.8287 64.9983 24.7936 65.0238 24.7674C65.1726 24.6026 65.3593 24.4762 65.5678 24.3991C65.7762 24.322 66.0003 24.2964 66.2209 24.3246C66.2537 24.335 66.2816 24.357 66.2993 24.3865C66.317 24.416 66.3232 24.4509 66.3169 24.4847C66.3106 24.5185 66.292 24.5488 66.2648 24.5699C66.2377 24.591 66.2037 24.6014 66.1693 24.5992C65.9948 24.5808 65.8185 24.6038 65.6546 24.6665C65.4908 24.7291 65.3442 24.8296 65.2267 24.9596C65.2129 24.9738 65.1963 24.9851 65.178 24.9928C65.1596 25.0004 65.14 25.0043 65.1201 25.0042V25.0042Z" fill="#263238"/>
<path d="M78.3194 40.0189C78.9653 41.5905 79.5246 43.1962 79.9947 44.8289C80.4893 46.4826 80.8539 48.1724 81.0852 49.8828C81.1299 50.326 81.1815 50.7623 81.1953 51.2227V51.5663C81.2112 51.7966 81.1938 52.028 81.1437 52.2534C81.0968 52.4423 81.0214 52.6231 80.9201 52.7894C80.8025 52.9793 80.6495 53.1449 80.4694 53.2772C80.1954 53.4737 79.8733 53.5925 79.5372 53.6208C79.3332 53.6406 79.1275 53.6348 78.9249 53.6036C78.7716 53.5827 78.6199 53.5518 78.4708 53.5109C78.2204 53.4413 77.9745 53.3564 77.7346 53.2566C77.3133 53.0777 76.9032 52.8735 76.5065 52.6451C75.0301 51.7782 73.6357 50.7789 72.3407 49.6595L73.1869 48.4261C74.6352 49.1579 76.1075 49.9206 77.5489 50.5081C77.8929 50.6558 78.2678 50.7829 78.5981 50.8826C78.746 50.9272 78.8964 50.9628 79.0487 50.9891C79.1014 50.9934 79.1543 50.9934 79.2069 50.9891C79.2413 50.9891 79.2585 50.9891 79.2069 50.9891C79.0811 51.0022 78.9617 51.0511 78.8629 51.1299C78.6948 51.2579 78.5738 51.4379 78.5189 51.6419C78.4845 51.7552 78.4983 51.8514 78.4845 51.7003L78.4536 51.422C78.4226 51.0544 78.3538 50.6764 78.2919 50.2985C78.1543 49.5358 77.9892 48.7696 77.7793 48.0035C77.5695 47.2373 77.3597 46.4677 77.1223 45.7016C76.6304 44.1795 76.0903 42.6266 75.5261 41.1561L78.3194 40.0189Z" fill="#EEC1BB"/>
<path d="M77.0259 36.8684C78.2265 37.236 79.6679 41.3657 79.6679 41.3657L75.0101 44.6914C75.0101 44.6914 73.3107 41.2557 73.813 39.6925C74.3393 38.0777 75.6534 36.4526 77.0259 36.8684Z" fill="#407BFF"/>
<path opacity="0.3" d="M77.0259 36.8684C78.2265 37.236 79.6679 41.3657 79.6679 41.3657L75.0101 44.6914C75.0101 44.6914 73.3107 41.2557 73.813 39.6925C74.3393 38.0777 75.6534 36.4526 77.0259 36.8684Z" fill="black"/>
<path d="M90.4557 110.512C90.3948 110.51 90.3351 110.495 90.2809 110.467C90.2267 110.439 90.1795 110.399 90.1427 110.351C90.1132 110.32 90.0925 110.283 90.0828 110.242C90.0731 110.2 90.0748 110.157 90.0876 110.117C90.1943 109.756 91.2194 109.464 91.3364 109.43C91.3494 109.427 91.3631 109.428 91.3759 109.432C91.3887 109.436 91.4 109.444 91.4086 109.454C91.416 109.465 91.4199 109.478 91.4199 109.492C91.4199 109.505 91.416 109.518 91.4086 109.53C91.2228 109.873 90.8616 110.468 90.4867 110.509L90.4557 110.512ZM91.2125 109.616C90.8066 109.743 90.2768 109.959 90.2218 110.158C90.2147 110.176 90.2135 110.196 90.2185 110.215C90.2234 110.233 90.2342 110.25 90.2493 110.261C90.2757 110.298 90.311 110.328 90.3519 110.347C90.3929 110.366 90.4381 110.375 90.4832 110.371C90.6827 110.347 90.9511 110.069 91.216 109.616H91.2125Z" fill="#407BFF"/>
<path d="M90.8891 109.625C90.584 109.655 90.2786 109.571 90.0326 109.388C89.9983 109.345 89.9796 109.291 89.9796 109.236C89.9796 109.18 89.9983 109.127 90.0326 109.083C90.061 109.037 90.0997 108.999 90.1458 108.971C90.1918 108.943 90.2437 108.926 90.2975 108.922C90.7206 108.863 91.3639 109.423 91.3914 109.447C91.4003 109.455 91.4072 109.465 91.4114 109.476C91.4156 109.488 91.417 109.5 91.4155 109.512C91.4125 109.524 91.4065 109.535 91.3981 109.544C91.3897 109.553 91.3791 109.56 91.3673 109.563C91.2118 109.607 91.0507 109.628 90.8891 109.625V109.625ZM90.3697 109.055H90.325C90.2911 109.06 90.2585 109.071 90.2295 109.089C90.2004 109.106 90.1755 109.13 90.1564 109.158C90.1083 109.231 90.1255 109.272 90.1564 109.299C90.2803 109.464 90.8616 109.526 91.2159 109.461C90.9757 109.252 90.6833 109.112 90.3697 109.055V109.055Z" fill="#407BFF"/>
<path d="M63.923 121.279C63.6711 121.302 63.419 121.239 63.2074 121.101C63.1603 121.058 63.1241 121.004 63.1019 120.944C63.0798 120.885 63.0723 120.821 63.0802 120.757C63.0824 120.719 63.0947 120.681 63.1158 120.649C63.1369 120.616 63.1661 120.59 63.2006 120.572C63.5618 120.373 64.7382 120.974 64.8724 121.042C64.8853 121.049 64.8957 121.059 64.902 121.072C64.9082 121.085 64.9099 121.1 64.9068 121.114C64.9049 121.129 64.8986 121.142 64.8887 121.152C64.8788 121.163 64.8659 121.17 64.8518 121.173C64.546 121.236 64.2352 121.272 63.923 121.279V121.279ZM63.3967 120.672C63.3518 120.67 63.3071 120.678 63.2659 120.696C63.2528 120.703 63.2418 120.715 63.234 120.728C63.2262 120.741 63.2218 120.756 63.2212 120.771C63.2143 120.812 63.218 120.854 63.2318 120.893C63.2456 120.932 63.2692 120.967 63.3003 120.994C63.4792 121.156 63.9642 121.183 64.6213 121.077C64.2398 120.87 63.8255 120.731 63.3967 120.665V120.672Z" fill="#407BFF"/>
<path d="M64.838 121.17C64.8292 121.173 64.8193 121.173 64.8105 121.17C64.4665 121.012 63.7613 120.376 63.8163 120.043C63.8163 119.964 63.8851 119.864 64.0778 119.847C64.1474 119.838 64.2181 119.845 64.2852 119.865C64.3522 119.886 64.414 119.921 64.4665 119.967C64.838 120.273 64.9068 121.067 64.9068 121.101C64.9087 121.113 64.9072 121.125 64.9023 121.136C64.8974 121.147 64.8894 121.157 64.8793 121.163C64.8667 121.17 64.8522 121.172 64.838 121.17V121.17ZM64.15 119.974H64.1087C63.978 119.974 63.9711 120.04 63.9677 120.053C63.9367 120.256 64.408 120.74 64.7658 120.974C64.7392 120.639 64.608 120.32 64.3908 120.064C64.3566 120.032 64.3164 120.008 64.2727 119.993C64.2289 119.978 64.1825 119.971 64.1363 119.974H64.15Z" fill="#407BFF"/>
<path d="M75.079 54.0434L75.3851 55.1153C75.4264 55.1978 75.3301 55.2837 75.189 55.2837H62.8532C62.7466 55.2837 62.6571 55.2287 62.6502 55.1634L62.5402 54.0915C62.5402 54.0159 62.6262 53.954 62.7466 53.954H74.8829C74.9205 53.9506 74.9584 53.957 74.9928 53.9726C75.0272 53.9883 75.0569 54.0127 75.079 54.0434V54.0434Z" fill="#407BFF"/>
<path opacity="0.6" d="M75.079 54.0434L75.3851 55.1153C75.4264 55.1978 75.3301 55.2837 75.189 55.2837H62.8532C62.7466 55.2837 62.6571 55.2287 62.6502 55.1634L62.5402 54.0915C62.5402 54.0159 62.6262 53.954 62.7466 53.954H74.8829C74.9205 53.9506 74.9584 53.957 74.9928 53.9726C75.0272 53.9883 75.0569 54.0127 75.079 54.0434V54.0434Z" fill="white"/>
<path d="M73.4484 55.3971H73.7924C73.8543 55.3971 73.9059 55.3662 73.9025 55.325L73.7477 53.9335C73.7477 53.8923 73.6857 53.8579 73.6238 53.8579H73.297C73.2317 53.8579 73.1835 53.8923 73.1869 53.9335L73.328 55.3146C73.328 55.3662 73.383 55.3971 73.4484 55.3971Z" fill="#407BFF"/>
<path opacity="0.5" d="M73.4484 55.3971H73.7924C73.8543 55.3971 73.9059 55.3662 73.9025 55.325L73.7477 53.9335C73.7477 53.8923 73.6857 53.8579 73.6238 53.8579H73.297C73.2317 53.8579 73.1835 53.8923 73.1869 53.9335L73.328 55.3146C73.328 55.3662 73.383 55.3971 73.4484 55.3971Z" fill="black"/>
<path d="M63.7682 55.3971H64.0916C64.1569 55.3971 64.2085 55.3661 64.2016 55.3249L64.04 53.9403C64.04 53.8991 63.978 53.8647 63.9127 53.8647H63.5893C63.524 53.8647 63.4758 53.8991 63.4792 53.9403L63.6306 55.3318C63.6478 55.3661 63.696 55.3971 63.7682 55.3971Z" fill="#407BFF"/>
<path opacity="0.5" d="M63.7682 55.3971H64.0916C64.1569 55.3971 64.2085 55.3661 64.2016 55.3249L64.04 53.9403C64.04 53.8991 63.978 53.8647 63.9127 53.8647H63.5893C63.524 53.8647 63.4758 53.8991 63.4792 53.9403L63.6306 55.3318C63.6478 55.3661 63.696 55.3971 63.7682 55.3971Z" fill="black"/>
<path d="M68.6083 55.3971H68.9351C68.997 55.3971 69.0486 55.3661 69.0417 55.3249L68.8904 53.9403C68.8904 53.8991 68.8284 53.8647 68.7631 53.8647H68.4397C68.3744 53.8647 68.3262 53.8991 68.3296 53.9403L68.481 55.3318C68.4879 55.3661 68.5429 55.3971 68.6083 55.3971Z" fill="#407BFF"/>
<path opacity="0.5" d="M68.6083 55.3971H68.9351C68.997 55.3971 69.0486 55.3661 69.0417 55.3249L68.8904 53.9403C68.8904 53.8991 68.8284 53.8647 68.7631 53.8647H68.4397C68.3744 53.8647 68.3262 53.8991 68.3296 53.9403L68.481 55.3318C68.4879 55.3661 68.5429 55.3971 68.6083 55.3971Z" fill="black"/>
<path d="M73.5928 48.7422L72.6021 45.7153L71.0197 48.2646C71.0197 48.2646 71.952 49.9137 73.1766 49.8897L73.5928 48.7422Z" fill="#EEC1BB"/>
<path d="M71.5495 42.2589L70.7721 52.3049C70.751 52.5666 70.627 52.8094 70.4271 52.98C70.2272 53.1507 69.9678 53.2353 69.7057 53.2153L50.5586 51.7414C50.2963 51.7204 50.0529 51.5966 49.8815 51.3971C49.7101 51.1976 49.6246 50.9386 49.6436 50.6764L50.421 40.6304C50.4329 40.4967 50.4719 40.3667 50.5358 40.2486C50.5997 40.1304 50.687 40.0265 50.7926 39.9433C50.9873 39.7888 51.2323 39.7117 51.4806 39.7268L70.6276 41.2042C70.8903 41.2244 71.1342 41.3479 71.3058 41.5476C71.4774 41.7473 71.5626 42.0069 71.5426 42.2692L71.5495 42.2589Z" fill="#407BFF"/>
<path opacity="0.8" d="M71.5495 42.2589L70.7721 52.3049C70.751 52.5666 70.627 52.8094 70.4271 52.98C70.2272 53.1507 69.9678 53.2353 69.7057 53.2153L50.5586 51.7414C50.2963 51.7204 50.0529 51.5966 49.8815 51.3971C49.7101 51.1976 49.6246 50.9386 49.6436 50.6764L50.421 40.6304C50.4329 40.4967 50.4719 40.3667 50.5358 40.2486C50.5997 40.1304 50.687 40.0265 50.7926 39.9433C50.9873 39.7888 51.2323 39.7117 51.4806 39.7268L70.6276 41.2042C70.8903 41.2244 71.1342 41.3479 71.3058 41.5476C71.4774 41.7473 71.5626 42.0069 71.5426 42.2692L71.5495 42.2589Z" fill="white"/>
<path d="M71.2881 41.4963L63.0871 47.0999C62.3281 47.6201 61.4143 47.8665 60.4963 47.7984C59.5783 47.7303 58.7109 47.3518 58.0372 46.7254L50.7925 39.933C50.9873 39.7786 51.2323 39.7015 51.4805 39.7166L70.6276 41.1939C70.8776 41.2095 71.113 41.3173 71.2881 41.4963Z" fill="#407BFF"/>
<path opacity="0.6" d="M71.2881 41.4963L63.0871 47.0999C62.3281 47.6201 61.4143 47.8665 60.4963 47.7984C59.5783 47.7303 58.7109 47.3518 58.0372 46.7254L50.7925 39.933C50.9873 39.7786 51.2323 39.7015 51.4805 39.7166L70.6276 41.1939C70.8776 41.2095 71.113 41.3173 71.2881 41.4963Z" fill="white"/>
<path d="M70.5415 44.3375L69.3341 46.5398L71.288 48.6665L72.6021 45.7152L70.5415 44.3375Z" fill="#EEC1BB"/>
<path d="M68.598 26.4546L68.0613 26.1937C68.0613 26.1937 68.2746 26.6811 68.598 26.4546Z" fill="#263238"/>
<path d="M123.652 66.9958H119.434V124.111H123.652V66.9958Z" fill="#407BFF"/>
<path opacity="0.6" d="M123.652 66.9958H119.434V124.111H123.652V66.9958Z" fill="white"/>
<path d="M119.434 66.9958H123.652V71.208L119.434 69.6585V66.9958Z" fill="#407BFF"/>
<path opacity="0.4" d="M119.434 66.9958H123.652V71.208L119.434 69.6585V66.9958Z" fill="white"/>
<path d="M114.883 53.2944C114.908 51.9552 114.665 50.6245 114.169 49.38C113.673 48.1356 112.934 47.0023 111.994 46.0465C111.055 45.0907 109.934 44.3315 108.697 43.8132C107.461 43.2949 106.133 43.028 104.792 43.028C103.451 43.028 102.123 43.2949 100.887 43.8132C99.65 44.3315 98.5291 45.0907 97.5896 46.0465C96.6501 47.0023 95.9107 48.1356 95.4147 49.38C94.9187 50.6245 94.676 51.9552 94.7008 53.2944V66.9959H114.883V53.2944Z" fill="#407BFF"/>
<path opacity="0.3" d="M114.883 53.2944C114.908 51.9552 114.665 50.6245 114.169 49.38C113.673 48.1356 112.934 47.0023 111.994 46.0465C111.055 45.0907 109.934 44.3315 108.697 43.8132C107.461 43.2949 106.133 43.028 104.792 43.028C103.451 43.028 102.123 43.2949 100.887 43.8132C99.65 44.3315 98.5291 45.0907 97.5896 46.0465C96.6501 47.0023 95.9107 48.1356 95.4147 49.38C94.9187 50.6245 94.676 51.9552 94.7008 53.2944V66.9959H114.883V53.2944Z" fill="black"/>
<path d="M92.7881 72.8743C91.4396 78.4402 94.8521 82.9512 100.439 82.9512C106.025 82.9512 111.622 78.4402 112.971 72.8743L114.374 67.0783C114.393 67.0002 114.395 66.9188 114.378 66.8401C114.361 66.7615 114.326 66.6877 114.276 66.6244C114.227 66.5612 114.163 66.51 114.091 66.475C114.018 66.4399 113.939 66.4219 113.858 66.4221H94.7695C94.6501 66.4227 94.5343 66.4633 94.4408 66.5375C94.3472 66.6116 94.2813 66.715 94.2535 66.831L92.7881 72.8743Z" fill="#407BFF"/>
<path opacity="0.4" d="M92.7881 72.8743C91.4396 78.4402 94.8521 82.9512 100.439 82.9512C106.025 82.9512 111.622 78.4402 112.971 72.8743L114.374 67.0783C114.393 67.0002 114.395 66.9188 114.378 66.8401C114.361 66.7615 114.326 66.6877 114.276 66.6244C114.227 66.5612 114.163 66.51 114.091 66.475C114.018 66.4399 113.939 66.4219 113.858 66.4221H94.7695C94.6501 66.4227 94.5343 66.4633 94.4408 66.5375C94.3472 66.6116 94.2813 66.715 94.2535 66.831L92.7881 72.8743Z" fill="white"/>
<path d="M91.9762 72.8743C90.6277 78.4402 94.0402 82.9512 99.6268 82.9512C105.213 82.9512 110.81 78.4402 112.159 72.8743L113.576 67.0783C113.595 67.0002 113.597 66.9188 113.58 66.8401C113.563 66.7615 113.528 66.6877 113.478 66.6244C113.429 66.5612 113.365 66.51 113.293 66.475C113.22 66.4399 113.141 66.4219 113.06 66.4221H93.968C93.8485 66.4227 93.7328 66.4633 93.6392 66.5375C93.5456 66.6116 93.4797 66.715 93.452 66.831L91.9762 72.8743Z" fill="#407BFF"/>
<path opacity="0.5" d="M91.9762 72.8743C90.6277 78.4402 94.0402 82.9512 99.6268 82.9512C105.213 82.9512 110.81 78.4402 112.159 72.8743L113.576 67.0783C113.595 67.0002 113.597 66.9188 113.58 66.8401C113.563 66.7615 113.528 66.6877 113.478 66.6244C113.429 66.5612 113.365 66.51 113.293 66.475C113.22 66.4399 113.141 66.4219 113.06 66.4221H93.968C93.8485 66.4227 93.7328 66.4633 93.6392 66.5375C93.5456 66.6116 93.4797 66.715 93.452 66.831L91.9762 72.8743Z" fill="white"/>
<path d="M138.633 53.2909V66.9958H114.897V53.2909C114.896 50.6186 113.833 48.056 111.941 46.1664C110.049 44.2769 107.483 43.2149 104.807 43.214H128.561C131.236 43.2149 133.802 44.2769 135.694 46.1664C137.586 48.056 138.649 50.6186 138.65 53.2909H138.633Z" fill="#407BFF"/>
<path opacity="0.5" d="M138.633 53.2909V66.9958H114.897V53.2909C114.896 50.6186 113.833 48.056 111.941 46.1664C110.049 44.2769 107.483 43.2149 104.807 43.214H128.561C131.236 43.2149 133.802 44.2769 135.694 46.1664C137.586 48.056 138.649 50.6186 138.65 53.2909H138.633Z" fill="white"/>
<path d="M138.633 53.2909V56.9568H114.897V53.2909C114.902 51.0499 114.153 48.8722 112.771 47.1067H136.524C137.9 48.8745 138.642 51.052 138.633 53.2909V53.2909Z" fill="#407BFF"/>
<path opacity="0.7" d="M138.633 53.2909V56.9568H114.897V53.2909C114.902 51.0499 114.153 48.8722 112.771 47.1067H136.524C137.9 48.8745 138.642 51.052 138.633 53.2909V53.2909Z" fill="white"/>
<path d="M118.189 58.7227V38.4522C118.189 38.2715 118.228 38.0928 118.303 37.9287C118.379 37.7646 118.49 37.6189 118.628 37.5018C118.765 37.3847 118.927 37.2991 119.102 37.2508C119.276 37.2025 119.459 37.1927 119.637 37.2222L124.501 38.0261C124.676 38.0547 124.834 38.1445 124.948 38.2792C125.062 38.414 125.125 38.5849 125.124 38.7614V40.0188C125.124 40.2166 125.045 40.4062 124.905 40.546C124.765 40.6858 124.576 40.7644 124.378 40.7644H119.737V58.7159C119.737 58.9209 119.655 59.1175 119.51 59.2625C119.365 59.4075 119.168 59.4889 118.963 59.4889C118.759 59.4889 118.563 59.4084 118.418 59.2649C118.273 59.1214 118.191 58.9266 118.189 58.7227Z" fill="#407BFF"/>
<path opacity="0.3" d="M118.189 58.7227V38.4522C118.189 38.2715 118.228 38.0928 118.303 37.9287C118.379 37.7646 118.49 37.6189 118.628 37.5018C118.765 37.3847 118.927 37.2991 119.102 37.2508C119.276 37.2025 119.459 37.1927 119.637 37.2222L124.501 38.0261C124.676 38.0547 124.834 38.1445 124.948 38.2792C125.062 38.414 125.125 38.5849 125.124 38.7614V40.0188C125.124 40.2166 125.045 40.4062 124.905 40.546C124.765 40.6858 124.576 40.7644 124.378 40.7644H119.737V58.7159C119.737 58.9209 119.655 59.1175 119.51 59.2625C119.365 59.4075 119.168 59.4889 118.963 59.4889C118.759 59.4889 118.563 59.4084 118.418 59.2649C118.273 59.1214 118.191 58.9266 118.189 58.7227Z" fill="black"/>
<path d="M104.79 45.8904V55.9638C104.789 56.2263 104.685 56.4778 104.499 56.6637C104.314 56.8496 104.062 56.9549 103.8 56.9567H84.594C84.3312 56.9549 84.0797 56.8496 83.8942 56.6637C83.7087 56.4778 83.6042 56.2263 83.6033 55.9638V45.8904C83.6042 45.6279 83.7087 45.3764 83.8942 45.1905C84.0797 45.0046 84.3312 44.8993 84.594 44.8975H103.8C104.062 44.8993 104.314 45.0046 104.499 45.1905C104.685 45.3764 104.789 45.6279 104.79 45.8904V45.8904Z" fill="#407BFF"/>
<path opacity="0.8" d="M104.79 45.8904V55.9638C104.789 56.2263 104.685 56.4778 104.499 56.6637C104.314 56.8496 104.062 56.9549 103.8 56.9567H84.594C84.3312 56.9549 84.0797 56.8496 83.8942 56.6637C83.7087 56.4778 83.6042 56.2263 83.6033 55.9638V45.8904C83.6042 45.6279 83.7087 45.3764 83.8942 45.1905C84.0797 45.0046 84.3312 44.8993 84.594 44.8975H103.8C104.062 44.8993 104.314 45.0046 104.499 45.1905C104.685 45.3764 104.789 45.6279 104.79 45.8904V45.8904Z" fill="white"/>
<path d="M104.474 45.1655L96.72 51.3806C96.0011 51.9558 95.1075 52.2692 94.1864 52.2692C93.2653 52.2692 92.3717 51.9558 91.6529 51.3806L83.9094 45.1655C84.0958 44.9912 84.3421 44.8953 84.5974 44.8975H103.803C104.052 44.8996 104.292 44.9953 104.474 45.1655V45.1655Z" fill="#407BFF"/>
<path opacity="0.6" d="M104.474 45.1655L96.72 51.3806C96.0011 51.9558 95.1075 52.2692 94.1864 52.2692C93.2653 52.2692 92.3717 51.9558 91.6529 51.3806L83.9094 45.1655C84.0958 44.9912 84.3421 44.8953 84.5974 44.8975H103.803C104.052 44.8996 104.292 44.9953 104.474 45.1655V45.1655Z" fill="white"/>
<path d="M90.0739 61.0178V71.0947C90.0739 71.3574 89.9697 71.6094 89.784 71.7956C89.5983 71.9817 89.3463 72.0867 89.0832 72.0876H69.888C69.6252 72.0858 69.3737 71.9805 69.1882 71.7946C69.0027 71.6087 68.8982 71.3571 68.8973 71.0947V61.0178C68.8973 60.7554 69.0017 60.5037 69.1875 60.3181C69.3733 60.1326 69.6252 60.0283 69.888 60.0283H89.0832C89.346 60.0283 89.598 60.1326 89.7837 60.3181C89.9695 60.5037 90.0739 60.7554 90.0739 61.0178Z" fill="#407BFF"/>
<path opacity="0.8" d="M90.0739 61.0178V71.0947C90.0739 71.3574 89.9697 71.6094 89.784 71.7956C89.5983 71.9817 89.3463 72.0867 89.0832 72.0876H69.888C69.6252 72.0858 69.3737 71.9805 69.1882 71.7946C69.0027 71.6087 68.8982 71.3571 68.8973 71.0947V61.0178C68.8973 60.7554 69.0017 60.5037 69.1875 60.3181C69.3733 60.1326 69.6252 60.0283 69.888 60.0283H89.0832C89.346 60.0283 89.598 60.1326 89.7837 60.3181C89.9695 60.5037 90.0739 60.7554 90.0739 61.0178Z" fill="white"/>
<path d="M89.7574 60.2928L82.014 66.508C81.2959 67.0849 80.402 67.3995 79.4804 67.3995C78.5588 67.3995 77.6649 67.0849 76.9468 66.508L69.2 60.2928C69.3867 60.1195 69.6331 60.0248 69.888 60.0283H89.0832C89.3335 60.0273 89.5747 60.1219 89.7574 60.2928V60.2928Z" fill="#407BFF"/>
<path opacity="0.6" d="M89.7574 60.2928L82.014 66.508C81.2959 67.0849 80.402 67.3995 79.4804 67.3995C78.5588 67.3995 77.6649 67.0849 76.9468 66.508L69.2 60.2928C69.3867 60.1195 69.6331 60.0248 69.888 60.0283H89.0832C89.3335 60.0273 89.5747 60.1219 89.7574 60.2928V60.2928Z" fill="white"/>
<path d="M114.883 53.4661V65.5253H107.707C107.444 65.5244 107.192 65.4195 107.005 65.2335C106.819 65.0475 106.714 64.7955 106.713 64.5324V54.459C106.715 54.1962 106.82 53.9447 107.006 53.7589C107.192 53.5731 107.444 53.4679 107.707 53.4661H114.883Z" fill="#407BFF"/>
<path opacity="0.8" d="M114.883 53.4661V65.5253H107.707C107.444 65.5244 107.192 65.4195 107.005 65.2335C106.819 65.0475 106.714 64.7955 106.713 64.5324V54.459C106.715 54.1962 106.82 53.9447 107.006 53.7589C107.192 53.5731 107.444 53.4679 107.707 53.4661H114.883Z" fill="white"/>
<path d="M114.883 53.4662V60.0283C114.846 60.0039 114.811 59.9776 114.777 59.9493L107.04 53.7341C107.226 53.5587 107.472 53.4625 107.728 53.4662H114.883Z" fill="#407BFF"/>
<path opacity="0.6" d="M114.883 53.4662V60.0283C114.846 60.0039 114.811 59.9776 114.777 59.9493L107.04 53.7341C107.226 53.5587 107.472 53.4625 107.728 53.4662H114.883Z" fill="white"/>
<path opacity="0.5" d="M114.88 53.4661H113.308V65.5253H114.88V53.4661Z" fill="#407BFF"/>
</svg>
