<svg width="166" height="149" viewBox="0 0 166 149" fill="none" xmlns="http://www.w3.org/2000/svg">
<g opacity="0.25">
<path d="M142.976 148.915L3.06905 147.266C2.42036 147.244 1.8045 146.975 1.34744 146.514C0.902434 146.053 0.658329 145.434 0.66852 144.793L1.97789 35.1467C1.97789 34.5036 2.23339 33.8869 2.68811 33.4322C3.14284 32.9774 3.75954 32.722 4.40262 32.722C5.0457 32.722 5.66248 32.9774 6.1172 33.4322C6.57193 33.8869 6.82735 34.5036 6.82735 35.1467L5.54225 142.392L143.024 144.017C143.667 144.017 144.284 144.272 144.739 144.727C145.194 145.182 145.449 145.799 145.449 146.442C145.449 147.085 145.194 147.702 144.739 148.156C144.284 148.611 143.667 148.866 143.024 148.866L142.976 148.915Z" fill="#BCC7FF"/>
<path d="M41.2774 102.829L22.4871 102.606L22.0776 137.108L40.8679 137.331L41.2774 102.829Z" fill="#BCC7FF"/>
<path d="M106.498 102.828L87.7079 102.605L87.2984 137.106L106.089 137.329L106.498 102.828Z" fill="#BCC7FF"/>
<path d="M74.3371 75.1916L55.5468 74.9686L54.8024 137.692L73.5927 137.915L74.3371 75.1916Z" fill="#714CFE"/>
<path d="M139.339 75.1872L120.549 74.9641L119.805 137.687L138.595 137.91L139.339 75.1872Z" fill="#714CFE"/>
<path d="M20.2604 87.5937C19.9238 87.596 19.5904 87.5282 19.2815 87.3946C18.9726 87.261 18.6949 87.0646 18.466 86.8178C18.0332 86.3445 17.8056 85.7191 17.8328 85.0783C17.8601 84.4376 18.1401 83.8337 18.6116 83.3989L61.7474 43.9001C62.1675 43.51 62.7122 43.2814 63.2848 43.2548C63.8574 43.2281 64.4209 43.4052 64.8753 43.7546L92.0808 64.9952L150.274 23.5566C150.534 23.372 150.827 23.2402 151.138 23.1689C151.448 23.0976 151.769 23.0881 152.083 23.141C152.398 23.1939 152.698 23.3082 152.968 23.4772C153.238 23.6463 153.472 23.8669 153.657 24.1265C153.841 24.386 153.973 24.6793 154.044 24.9897C154.116 25.3002 154.125 25.6216 154.072 25.9357C154.019 26.2498 153.905 26.5504 153.736 26.8204C153.567 27.0903 153.346 27.3242 153.087 27.5089L93.4871 69.9902C93.0696 70.2993 92.5639 70.4661 92.0444 70.4661C91.5249 70.4661 91.0192 70.2993 90.6017 69.9902L63.5902 48.9193L21.9092 86.9633C21.4583 87.3731 20.8697 87.5982 20.2604 87.5937Z" fill="#BCC7FF"/>
<path d="M105.635 47.6342C105.635 47.6342 93.0507 43.5607 95.6451 25.351C98.2396 7.14125 108.739 0.0852966 108.739 0.0852966C108.739 0.0852966 120.596 12.4757 120.644 28.1879C120.693 43.9002 110.242 47.5858 110.242 47.5858L108.108 17.0827L105.635 47.6342Z" fill="#BCC7FF"/>
<path d="M124.839 47.7553C124.839 47.7553 119.601 34.8315 136.09 24.5992C152.578 14.3668 165.332 18.0766 165.332 18.0766C165.332 18.0766 163.368 36.0439 150.783 46.7127C138.199 57.3815 127.239 50.859 127.239 50.859L151.487 31.6066L124.839 47.7553Z" fill="#BCC7FF"/>
</g>
</svg>
